<svg width="40" height="33" viewBox="0 0 40 33" fill="none" xmlns="http://www.w3.org/2000/svg">
<g id="Group">
<path id="Vector" d="M37.5354 29.7437C37.708 29.7437 37.7943 29.7437 37.8805 29.7437C39.8652 29.673 39.52 29.885 39.6063 31.1567C39.6063 31.298 39.6063 31.4393 39.6063 31.5806C39.6063 32.2871 39.52 32.3577 38.6571 32.3577C26.0591 32.3577 13.5473 32.3577 0.949171 32.3577C0.172577 32.3577 0.0862884 32.2871 0.0862884 31.6512C0.0862884 31.2273 0.0862884 30.8034 0.0862884 30.3795C0.0862884 29.9556 0.345153 29.7437 0.776594 29.7437C1.20804 29.7437 1.55319 29.7437 1.98463 29.7437C1.98463 25.3634 1.98463 21.0537 1.98463 16.6028C1.55319 16.6028 1.12175 16.6028 0.690306 16.6028C0.258865 16.6028 0 16.4615 0 16.1082C0 15.6137 0 15.1191 0 14.5539C0 14.2007 0.172577 14.0594 0.604018 14.0594C0.776594 14.0594 0.862883 14.0594 1.03546 14.0594C6.47162 14.0594 11.9941 14.0594 17.4302 14.0594C18.3794 14.0594 18.4657 14.13 18.4657 14.8365C18.4657 15.1191 18.4657 15.4017 18.4657 15.6843C18.4657 16.5321 18.4657 16.5321 17.3439 16.5321C17.0851 16.5321 16.8262 16.5321 16.4811 16.5321C16.4811 17.3093 16.4811 18.0158 16.4811 18.7929C19.0697 18.7929 21.7446 18.7929 24.3333 18.7929C24.4196 18.1571 24.4196 17.5919 24.5059 17.0267C24.6784 13.9181 24.9373 10.7388 24.9373 7.6302C24.9373 6.99435 24.6784 6.28785 24.6784 5.652C24.6784 4.87485 24.7647 4.8042 25.7139 4.8042C27.6985 4.8042 29.5969 4.8042 31.5815 4.8042C32.2718 4.8042 32.5307 4.9455 32.4444 5.58135C32.3581 6.2172 32.7033 6.9237 32.0992 7.4889C32.0129 7.55955 32.0992 7.6302 32.0992 7.70085C32.2718 11.3747 32.5307 14.9778 32.7033 18.6516C32.7033 18.7223 32.7032 18.7929 32.7895 19.0049C33.9976 19.0049 35.2056 19.0049 36.4136 19.0049C37.3628 19.0049 37.4491 19.0755 37.4491 19.782C37.4491 22.8906 37.4491 26.0699 37.4491 29.1785C37.5354 29.3198 37.5354 29.5317 37.5354 29.7437ZM16.4811 29.7437C23.1253 29.7437 29.6832 29.7437 36.3274 29.7437C36.3274 26.4231 36.3274 23.1732 36.3274 19.9233C29.6832 19.9233 23.1253 19.9233 16.4811 19.9233C16.4811 23.2439 16.4811 26.4938 16.4811 29.7437ZM6.6442 29.7437C6.6442 29.4611 6.6442 29.3198 6.6442 29.1078C6.6442 27.7655 6.6442 26.3525 6.6442 25.0101C6.6442 24.5156 6.90306 24.3036 7.50708 24.3036C8.62883 24.3036 9.75057 24.3036 10.8723 24.3036C11.6489 24.3036 11.8215 24.4449 11.8215 25.0808C11.8215 26.4231 11.8215 27.8361 11.8215 29.1785C11.8215 29.3904 11.8215 29.5317 11.8215 29.7437C13.0295 29.7437 14.1513 29.7437 15.1867 29.7437C15.1867 25.3634 15.1867 21.0537 15.1867 16.6734C11.1312 16.6734 7.16193 16.6734 3.19267 16.6734C3.19267 21.0537 3.19267 25.3634 3.19267 29.7437C4.4007 29.7437 5.43616 29.7437 6.6442 29.7437ZM25.6276 18.8636C27.6985 18.8636 29.6832 18.8636 31.7541 18.8636C31.4952 15.0485 31.3226 11.2334 31.0638 7.4889C29.4243 7.4889 27.8711 7.4889 26.2316 7.4889C26.0591 11.304 25.8002 15.1191 25.6276 18.8636ZM1.20804 31.4393C13.6335 31.4393 25.9728 31.4393 38.312 31.4393C38.312 31.2273 38.312 31.0154 38.312 30.8034C25.8865 30.8034 13.5473 30.8034 1.20804 30.8034C1.20804 31.0154 1.20804 31.1567 1.20804 31.4393ZM10.6135 25.3634C9.66428 25.3634 8.71511 25.3634 7.85223 25.3634C7.85223 26.847 7.85223 28.3307 7.85223 29.8143C8.8014 29.8143 9.66428 29.8143 10.6135 29.8143C10.6135 28.26 10.6135 26.7764 10.6135 25.3634ZM1.20804 15.755C6.55791 15.755 11.9078 15.755 17.2577 15.755C17.2577 15.543 17.2577 15.3311 17.2577 15.1191C11.9078 15.1191 6.55791 15.1191 1.20804 15.1191C1.20804 15.3311 1.20804 15.4724 1.20804 15.755ZM25.9728 6.42915C27.8711 6.42915 29.5969 6.42915 31.4089 6.42915C31.4089 6.2172 31.4089 6.00525 31.4089 5.86395C29.5969 5.86395 27.7848 5.86395 25.9728 5.86395C25.9728 6.0759 25.9728 6.2172 25.9728 6.42915Z" fill="white"/>
<path id="Vector_2" d="M27.0945 3.5325C27.1808 1.6956 29.1654 0.07065 31.3226 0C32.4444 0 33.6524 0 34.7741 0C35.1193 0 35.4644 0.07065 35.4644 0.4239C35.4644 0.77715 35.2056 0.91845 34.7741 0.91845C33.7387 0.91845 32.7032 0.91845 31.6678 0.91845C29.8557 0.91845 28.5614 1.90755 28.3025 3.3912C28.3025 3.46185 28.3025 3.46185 28.3025 3.5325C28.2162 3.88575 28.2162 4.239 27.6122 4.16835C27.0945 4.239 27.0945 3.8151 27.0945 3.5325Z" fill="white"/>
<path id="Vector_3" d="M32.3581 1.69565C32.7033 1.69565 32.9621 1.69565 33.3073 1.69565C33.7387 1.69565 33.9976 1.83695 33.9976 2.11955C33.9113 2.3315 33.6524 2.54345 33.3936 2.6141C32.8759 2.68475 32.3581 2.6141 31.8404 2.6141C30.8912 2.6141 30.5461 2.8967 30.2872 3.6032C30.2009 3.95645 30.1146 4.23905 29.5969 4.1684C29.0792 4.09775 29.0792 3.7445 29.1655 3.39125C29.338 2.4728 30.2872 1.625 31.4952 1.625C31.7541 1.69565 32.0993 1.69565 32.3581 1.69565Z" fill="white"/>
<path id="Vector_4" d="M37.4491 1.69573C37.9668 1.69573 38.3982 1.62502 38.916 1.69573C39.1748 1.69573 39.3474 1.97857 39.52 2.11999C39.3474 2.26142 39.1748 2.61497 38.916 2.61497C37.8805 2.68568 36.8451 2.68568 35.8959 2.61497C35.7233 2.61497 35.4644 2.33213 35.2919 2.11999C35.5507 1.97857 35.7233 1.76644 35.9822 1.69573C36.4999 1.62502 36.9313 1.69573 37.4491 1.69573Z" fill="white"/>
<path id="Vector_5" d="M38.5708 1.13047C38.2257 0.989167 37.8805 0.918517 37.708 0.706567C37.6217 0.635916 37.7943 0.141366 37.8805 0.141366C38.3983 0.0707164 38.8297 0.0707164 39.3474 0.141366C39.4337 0.141366 39.6063 0.635916 39.52 0.706567C39.2612 0.847867 38.916 0.989167 38.5708 1.13047Z" fill="white"/>
<path id="Vector_6" d="M31.409 24.7983C31.409 23.5266 31.409 23.5266 32.9621 23.5266C34.6016 23.5266 34.6016 23.5266 34.6016 24.869C34.6016 26.1407 34.6016 26.1407 33.0484 26.1407C31.2364 26.1407 31.409 26.1407 31.409 24.7983ZM32.617 24.5157C32.617 24.7277 32.617 24.9396 32.617 25.1516C32.8759 25.1516 33.1347 25.1516 33.3936 25.1516C33.3936 24.9396 33.3936 24.7277 33.3936 24.5157C33.1347 24.5157 32.8759 24.5157 32.617 24.5157Z" fill="white"/>
<path id="Vector_7" d="M18.2931 24.8688C18.2931 23.5971 18.1205 23.5264 19.8463 23.5971C21.3995 23.5971 21.3995 23.5971 21.3995 24.8688C21.3995 26.2111 21.3995 26.2111 19.76 26.2111C18.2931 26.1405 18.2931 26.1405 18.2931 24.8688ZM20.2778 25.1514C20.2778 24.9394 20.2778 24.7275 20.2778 24.5155C20.0189 24.5155 19.76 24.5155 19.5012 24.5155C19.5012 24.7275 19.5012 24.9394 19.5012 25.1514C19.76 25.1514 20.0189 25.1514 20.2778 25.1514Z" fill="white"/>
<path id="Vector_8" d="M24.851 24.7983C24.851 23.5266 24.851 23.5266 26.4042 23.5266C28.0437 23.5266 28.0437 23.5266 28.0437 24.9396C28.0437 25.1516 28.0437 25.3635 28.0437 25.5048C28.0437 25.9287 27.7848 26.1407 27.2671 26.1407C26.7494 26.1407 26.2316 26.1407 25.7139 26.1407C25.1099 26.1407 24.7647 25.9287 24.851 25.4342C24.851 25.2222 24.851 25.0103 24.851 24.7983ZM26.8356 25.1516C26.8356 24.9396 26.8356 24.7277 26.8356 24.5157C26.5768 24.5157 26.3179 24.5157 26.1453 24.5157C26.1453 24.7277 26.1453 24.9396 26.1453 25.1516C26.3179 25.1516 26.5768 25.1516 26.8356 25.1516Z" fill="white"/>
<path id="Vector_9" d="M9.14657 22.8907C7.59338 22.8907 7.59338 22.8907 7.59338 21.619C7.59338 20.2766 7.59338 20.2766 9.23286 20.2766C10.786 20.2766 10.786 20.2766 10.786 21.5483C10.8723 23.032 10.786 22.8907 9.14657 22.8907ZM9.57801 21.2657C9.31915 21.2657 9.06028 21.2657 8.80142 21.2657C8.80142 21.4777 8.80142 21.6896 8.80142 21.9016C9.06028 21.9016 9.31915 21.9016 9.57801 21.9016C9.57801 21.6896 9.57801 21.4777 9.57801 21.2657Z" fill="white"/>
<path id="Vector_10" d="M30.546 12.7169C30.546 13.0702 30.4597 13.4234 29.942 13.4234C29.4243 13.4234 29.338 13.1408 29.338 12.7876C29.338 12.3637 29.2517 12.0104 29.2517 11.5865C29.2517 11.3039 29.338 11.0213 29.7694 10.9507C30.2872 10.9507 30.3735 11.1626 30.4597 11.5159C30.4597 11.9398 30.546 12.3637 30.546 12.7169Z" fill="white"/>
</g>
</svg>
