<svg width="36" height="36" viewBox="0 0 36 36" fill="none" xmlns="http://www.w3.org/2000/svg">
<g id="Group 34">
<g id="Group 9">
<g id="Group 8">
<path id="Union" fill-rule="evenodd" clip-rule="evenodd" d="M0.732233 31.587C-0.244078 32.5633 -0.244078 34.1463 0.732233 35.1226C1.70854 36.0989 3.29146 36.0989 4.26777 35.1226L19.3097 20.0806C19.4328 19.9575 19.5404 19.8247 19.6325 19.6848C20.5239 18.7035 20.4959 17.1848 19.5485 16.2374L4.50653 1.19543C3.53022 0.21912 1.94731 0.219116 0.970996 1.19543C-0.0053143 2.17174 -0.00531337 3.75465 0.970996 4.73096L14.2796 18.0396L0.732233 31.587Z" fill="#6A6A6A"/>
</g>
</g>
<g id="Group 16">
<g id="Group 8_2">
<path id="Union_2" fill-rule="evenodd" clip-rule="evenodd" d="M16.0163 31.1238C15.04 32.1001 15.04 33.6831 16.0163 34.6594C16.9926 35.6357 18.5755 35.6357 19.5518 34.6594L34.5938 19.6174C34.7169 19.4943 34.8245 19.3615 34.9165 19.2215C35.808 18.2403 35.78 16.7216 34.8325 15.7742L19.7906 0.732231C18.8143 -0.24408 17.2314 -0.24408 16.2551 0.732231C15.2787 1.70854 15.2787 3.29145 16.2551 4.26777L29.5637 17.5764L16.0163 31.1238Z" fill="#6A6A6A"/>
</g>
</g>
</g>
</svg>
