<svg width="81" height="77" viewBox="0 0 81 77" fill="none" xmlns="http://www.w3.org/2000/svg">
<g id="&#209;&#129;&#209;&#130;&#209;&#128;&#208;&#181;&#208;&#187;&#208;&#186;&#208;&#176;">
<g id="Group 9">
<g id="Group 8">
<path id="Union" fill-rule="evenodd" clip-rule="evenodd" d="M8.53553 32.494C6.58291 30.5414 3.41709 30.5414 1.46447 32.494C-0.488155 34.4466 -0.488155 37.6124 1.46447 39.565L36.4329 74.5335C36.6952 74.7958 36.9794 75.0229 37.2796 75.2147C39.2403 77.0402 42.3103 76.9982 44.2199 75.0885L79.1884 40.12C81.141 38.1674 81.141 35.0016 79.1884 33.049C77.2358 31.0964 74.07 31.0964 72.1173 33.049L40.6039 64.5624L8.53553 32.494Z" fill="#258E03"/>
</g>
</g>
<g id="Group 10">
<g id="Group 8_2">
<path id="Union_2" fill-rule="evenodd" clip-rule="evenodd" d="M8.53553 1.46447C6.58291 -0.488155 3.41709 -0.488155 1.46447 1.46447C-0.488155 3.41709 -0.488155 6.58291 1.46447 8.53553L36.4329 43.504C36.6952 43.7663 36.9794 43.9934 37.2796 44.1852C39.2403 46.0107 42.3103 45.9686 44.2199 44.059L79.1884 9.09053C81.141 7.13791 81.141 3.97209 79.1884 2.01947C77.2358 0.0668442 74.07 0.0668433 72.1173 2.01947L40.6039 33.5329L8.53553 1.46447Z" fill="#258E03"/>
</g>
</g>
</g>
</svg>
