<svg width="165" height="51" viewBox="0 0 165 51" fill="none" xmlns="http://www.w3.org/2000/svg">
<path d="M48.9825 49.5201H26.242V46.9103C27.2991 46.8216 28.5415 46.6042 29.9708 46.2581C31.3992 45.9129 32.1143 45.4829 32.1143 44.9699C32.1143 44.7916 32.0992 44.5904 32.0699 44.3673C32.0405 44.1441 31.9567 43.8438 31.8201 43.4633L28.2573 33.6259H13.8461C13.5142 34.5413 13.1487 35.6121 12.7488 36.8383C12.3489 38.0655 12.0036 39.1582 11.711 40.1174C11.3405 41.3675 11.1208 42.2705 11.0521 42.8283C10.9834 43.3861 10.949 43.777 10.949 43.9992C10.949 44.7134 11.4235 45.3208 12.3741 45.8233C13.3247 46.3248 14.9066 46.6881 17.1214 46.9113V49.521H0V46.9113C0.647165 46.8664 1.37816 46.7501 2.19131 46.5594C3.00529 46.3706 3.64743 46.1074 4.11855 45.7728C4.92247 45.2378 5.60401 44.5799 6.16316 43.798C6.7223 43.0171 7.18755 42.0912 7.5606 41.0204C9.83573 34.752 12.1151 28.4721 14.4003 22.1808C16.6846 15.8895 19.2104 8.95267 21.9759 1.36743H27.8599C31.7035 12.1203 34.7147 20.6199 36.8918 26.8655C39.0688 33.1119 40.9223 38.2876 42.4522 42.3916C42.707 43.061 43.0306 43.6693 43.4229 44.2157C43.8152 44.763 44.3744 45.2817 45.0995 45.7718C45.6486 46.1294 46.2857 46.3964 47.0117 46.5747C47.7368 46.7539 48.394 46.8645 48.9825 46.9094V49.5191V49.5201ZM27.0468 30.3124L21.0052 13.1491L15.0516 30.3124H27.0468Z" fill="#258E03"/>
<path d="M93.0375 14.3562C91.8312 11.323 90.199 8.73423 88.1393 6.59262C86.1391 4.51777 83.771 2.9006 81.0348 1.74017C78.2986 0.580692 75.3721 0 72.2536 0C69.1351 0 66.1592 0.596903 63.3836 1.78975C60.608 2.98356 58.2105 4.68463 56.191 6.89298C54.1514 9.14614 52.5478 11.8513 51.3809 15.0074C50.2139 18.1645 49.6305 21.683 49.6305 25.5648C49.6305 29.4465 50.2282 32.6704 51.4253 35.7035C52.6215 38.7376 54.2394 41.314 56.279 43.4337C58.3387 45.5982 60.7212 47.2487 63.428 48.3863C66.1349 49.5238 69.0077 50.0931 72.0474 50.0931C75.813 50.0931 79.0589 49.4409 81.785 48.1355C84.5112 46.8301 86.8844 45.007 88.9047 42.6642C90.8269 40.411 92.2973 37.7231 93.3175 34.6003C94.3368 31.4775 94.8474 28.1869 94.8474 24.7285C94.8474 20.8468 94.2446 17.3893 93.0383 14.3552L93.0375 14.3562Z" fill="#258E03"/>
<path d="M121.735 49.5201H98.5829V46.9103C99.1127 46.8655 99.8923 46.7987 100.922 46.7091C101.951 46.6204 102.662 46.486 103.054 46.3077C103.779 45.973 104.275 45.5324 104.54 44.9861C104.805 44.4397 104.937 43.7427 104.937 42.895V9.23201C104.937 8.47397 104.81 7.8046 104.555 7.2239C104.3 6.64416 103.8 6.17599 103.054 5.81842C102.583 5.59529 101.887 5.36645 100.965 5.13284C100.043 4.89827 99.2493 4.73713 98.582 4.6475V2.03772H121.734V4.6475C121.146 4.71424 120.41 4.8096 119.528 4.93165C118.645 5.05465 117.9 5.22724 117.292 5.45036C116.527 5.74023 116.017 6.1922 115.762 6.80531C115.507 7.41937 115.38 8.1164 115.38 8.89637V42.526C115.38 43.3289 115.512 44.0154 115.777 44.5837C116.042 45.1529 116.547 45.6154 117.292 45.972C117.704 46.1732 118.385 46.3687 119.337 46.5575C120.288 46.7472 121.087 46.8645 121.734 46.9093V49.5191L121.735 49.5201Z" fill="#258E03"/>
<path d="M164.892 34.2952L164.068 49.5201H125.618V46.9103C126.304 46.8435 127.108 46.7377 128.03 46.5928C128.952 46.4478 129.56 46.3086 129.855 46.1742C130.56 45.8624 131.051 45.4266 131.326 44.8688C131.6 44.311 131.737 43.5968 131.737 42.7272V9.23201C131.737 8.42915 131.629 7.7655 131.414 7.24107C131.198 6.71759 130.679 6.24273 129.855 5.81937C129.247 5.50757 128.516 5.25584 127.663 5.06609C126.81 4.8773 126.128 4.73713 125.619 4.6475V2.03772H148.536V4.6475C147.908 4.71424 147.168 4.8096 146.315 4.93165C145.461 5.05465 144.721 5.22724 144.093 5.45036C143.328 5.74023 142.818 6.1922 142.563 6.80531C142.308 7.41937 142.181 8.1164 142.181 8.89637V40.1165C142.181 41.5887 142.269 42.7491 142.446 43.5968C142.623 44.4445 142.966 45.069 143.475 45.4705C143.985 45.8948 144.696 46.1675 145.608 46.2905C146.52 46.4135 147.78 46.4745 149.388 46.4745C150.996 46.4745 152.481 46.3687 153.962 46.157C155.443 45.9453 156.507 45.4829 157.155 44.7687C158.155 43.6311 159.179 42.0302 160.229 39.9668C161.277 37.9033 162.116 36.0135 162.743 34.2952H164.891H164.892Z" fill="#258E03"/>
<path d="M71.5375 6.89588L71.5374 6.89599C70.29 10.5768 68.4117 13.6496 66.5252 16.3762C65.931 17.2351 65.3347 18.0612 64.7569 18.8617C63.5048 20.5962 62.3395 22.2105 61.4702 23.7775C58.8374 28.5231 59.4842 33.5423 61.8072 37.371C64.1276 41.1955 68.1309 43.8478 72.2309 43.8478C76.3307 43.8478 80.3208 41.209 82.6522 37.4097C84.986 33.6064 85.6685 28.6238 83.1323 23.9237C82.25 22.2889 81.0261 20.6063 79.7062 18.7917C79.1594 18.04 78.5961 17.2656 78.0338 16.4625C76.1131 13.7195 74.1917 10.6271 72.9309 6.91643V6.91545L72.9243 6.89588C72.8671 6.72759 72.7929 6.55994 72.6842 6.43748C72.5726 6.31193 72.4232 6.2331 72.2309 6.24896C72.0386 6.2331 71.8891 6.31193 71.7776 6.43748C71.6688 6.55994 71.5947 6.72759 71.5375 6.89588Z" fill="#FBE115" stroke="black" stroke-width="0.25" stroke-miterlimit="22.93"/>
</svg>
