<svg width="32" height="32" viewBox="0 0 32 32" fill="none" xmlns="http://www.w3.org/2000/svg">
<g id="Group 46">
<rect id="Rectangle 10" x="0.5" y="0.5" width="31" height="31" rx="4.5" stroke="white"/>
<g id="Group">
<path id="Vector" d="M17.5865 25.0361C16.0548 25.0361 14.6583 25.0361 13.1717 25.0361C13.1717 20.5801 13.1717 16.1447 13.1717 11.6477C14.5006 11.6477 15.8296 11.6477 17.2486 11.6477C17.2937 12.1611 17.3387 12.6539 17.3838 13.2904C19.0506 11.7504 20.8976 11.0727 23.1501 11.3602C25.5152 11.6682 27.61 13.352 27.7 15.5287C27.8577 18.6704 27.7451 21.8122 27.7451 25.0361C26.3035 25.0361 24.907 25.0361 23.3528 25.0361C23.3528 23.8861 23.3528 22.7568 23.3528 21.6479C23.3528 20.3132 23.3979 18.9784 23.3303 17.6437C23.2627 15.9599 22.2491 15.0769 20.5372 15.0769C18.8028 15.0975 17.6541 16.0831 17.609 17.7053C17.564 19.7588 17.5865 21.8122 17.5865 23.8656C17.5865 24.2352 17.5865 24.6048 17.5865 25.0361Z" fill="white"/>
<path id="Vector_2" d="M5.98615 11.6064C7.4953 11.6064 8.93687 11.6064 10.5361 11.6064C10.5361 11.9555 10.5361 12.3046 10.5361 12.6332C10.5361 16.432 10.4911 20.2103 10.5586 24.0092C10.5812 24.9537 10.2208 25.1796 9.27474 25.118C8.19356 25.0564 7.11238 25.0975 5.96362 25.0975C5.98615 20.5799 5.98615 16.1651 5.98615 11.6064Z" fill="white"/>
<path id="Vector_3" d="M5.64845 6.98633C5.6935 5.67214 6.86478 4.66596 8.28382 4.70702C9.7254 4.72756 10.8967 5.87748 10.8516 7.19167C10.8066 8.48534 9.50015 9.59419 8.10363 9.53259C6.63953 9.47098 5.6034 8.38266 5.64845 6.98633Z" fill="white"/>
</g>
</g>
</svg>
