<svg width="32" height="32" viewBox="0 0 32 32" fill="none" xmlns="http://www.w3.org/2000/svg">
<g id="Group 47">
<g id="Group 18">
<rect id="Rectangle 10" x="0.5" y="0.5" width="31" height="31" rx="4.5" stroke="white"/>
</g>
<g id="Group">
<path id="Vector" d="M29.8447 9.79751C29.7356 10.398 29.5718 10.9439 29.1897 11.4352C28.6438 12.1448 27.6066 12.5269 26.897 12.1994C26.6786 12.0902 26.5149 11.9265 26.3511 11.8173C25.969 11.981 25.5869 12.254 25.1502 12.3086C24.113 12.4723 23.3487 11.6535 23.4579 10.5072C23.6217 8.54198 25.2593 7.34104 27.2245 7.88693C27.9342 8.10528 27.9887 8.10528 27.825 8.86951C27.7158 9.46998 27.6066 10.125 27.4974 10.7255C27.4974 10.8893 27.552 10.9985 27.6066 11.1622C27.7704 11.1076 27.9342 11.053 28.0433 10.9439C28.1525 10.8347 28.2617 10.6709 28.3163 10.5072C28.9167 8.86951 28.2071 6.90434 25.9144 7.01351C24.2767 7.0681 23.0212 8.32363 22.9666 10.0705C22.9666 10.5617 23.0212 11.1076 23.185 11.5443C23.6217 12.8545 24.9864 13.2912 26.1873 13.0728C26.624 13.0182 27.0062 12.8545 27.4974 12.7453C27.6066 13.0728 27.7158 13.4003 27.825 13.7825C27.3337 13.8916 26.897 14.11 26.4057 14.1646C25.0956 14.3829 23.84 14.2192 22.8574 13.2366C21.7657 12.1994 21.4927 10.8893 21.7657 9.46998C22.1478 7.66857 23.185 6.52222 24.9318 6.03093C26.6786 5.53963 28.5892 6.19469 29.3534 7.66857C29.5718 8.05069 29.6264 8.4874 29.7902 8.9241C29.8447 9.19704 29.8447 9.46998 29.8447 9.79751ZM26.4057 9.08787C25.3685 8.97869 24.9318 10.125 25.1502 10.7801C25.2593 11.053 25.4777 10.9985 25.6414 10.8893C25.7506 10.8347 25.9144 10.7255 25.9144 10.5617C26.1327 10.125 26.2419 9.63375 26.4057 9.08787Z" fill="white"/>
<g id="Group_2">
<path id="Vector_2" d="M27.4975 15.5839C27.4975 15.4748 27.4975 15.3656 27.4975 15.311C26.9516 15.4202 26.4603 15.4748 25.969 15.5839C25.969 15.6931 25.969 15.8023 25.969 15.9115C25.969 17.7675 25.969 19.678 25.969 21.534C25.969 21.6978 25.9144 21.8616 25.9144 22.0253C24.0584 20.1693 22.257 18.3679 20.401 16.5119C21.056 15.8569 21.7111 15.2018 22.4207 14.5468C22.0386 14.2192 21.6565 13.8371 21.2744 13.5096C21.2744 13.5096 21.1652 13.6188 21.1106 13.6733C19.473 15.311 17.8353 16.9486 16.2523 18.5317C15.8702 18.9138 15.761 18.9138 15.3243 18.5317C12.6495 15.8569 9.97463 13.182 7.29981 10.5072C7.24522 10.4526 7.13604 10.3435 7.02687 10.2343C11.5577 10.2343 16.0339 10.2343 20.5102 10.2343C20.6193 9.6884 20.6739 9.1971 20.7285 8.70581C20.6193 8.70581 20.5102 8.70581 20.401 8.70581C15.761 8.70581 11.121 8.70581 6.53557 8.70581C5.66216 8.70581 4.95251 8.97875 4.46122 9.6884C4.29745 9.90675 4.18828 10.1797 4.0791 10.398V22.2983C4.13369 22.462 4.18828 22.6258 4.24287 22.735C4.67957 23.663 5.4984 24.0997 6.53557 24.0997C8.33698 24.0997 10.1384 24.0997 11.9398 24.0997C16.3069 24.0997 20.6739 24.0997 25.041 24.0997C25.6415 24.0997 26.1873 23.9905 26.6786 23.6084C27.3883 23.0625 27.552 22.2983 27.552 21.4795C27.4975 19.5143 27.4975 17.5491 27.4975 15.5839ZM5.4984 22.0253C5.4984 18.3679 5.4984 14.7105 5.4984 11.1077C7.29981 12.9091 9.15581 14.7651 10.9572 16.5665C9.15581 18.3679 7.3544 20.1693 5.4984 22.0253ZM7.46357 22.5166C9.04663 20.9336 10.6297 19.3505 12.2673 17.7129C12.9224 18.3679 13.5775 19.023 14.2325 19.7326C15.1605 20.6606 16.2523 20.6606 17.1803 19.7326C17.8353 19.0776 18.545 18.3679 19.1455 17.7129C20.7285 19.2959 22.3116 20.9336 23.8946 22.5166C18.4358 22.5166 12.9224 22.5166 7.46357 22.5166Z" fill="white"/>
</g>
</g>
</g>
</svg>
