<svg width="32" height="32" viewBox="0 0 32 32" fill="none" xmlns="http://www.w3.org/2000/svg">
<g id="icon 5 1">
<g id="Group">
<path id="XMLID_110_" d="M16.832 4.6081C22.976 5.5681 25.856 8.3841 26.624 14.5281C26.624 14.5921 26.624 14.5921 26.624 14.6561C26.688 15.2321 26.56 15.9361 27.264 15.9361C27.904 15.9361 27.968 15.4881 27.904 14.9761C27.904 14.8481 27.904 14.6561 27.904 14.5281C27.968 8.7681 22.848 3.4561 16.96 3.2641C16.512 3.3281 15.616 2.9441 15.552 3.9681C15.552 4.6081 16.32 4.4801 16.832 4.6081Z" fill="white"/>
<path id="XMLID_109_" d="M18.048 6.27211C17.472 6.20811 16.64 5.95211 16.512 6.72011C16.384 7.55211 17.216 7.48811 17.792 7.61611C21.632 8.44811 22.912 9.79211 23.552 13.5041C23.552 13.6321 23.552 13.8241 23.616 14.0161C23.68 14.4641 23.744 14.8481 24.448 14.7201C24.768 14.6561 24.896 14.4641 24.96 14.2081C25.024 13.9521 24.96 13.6961 24.96 13.4401C24.96 9.92011 21.824 6.72011 18.048 6.27211Z" fill="white"/>
<path id="XMLID_108_" d="M18.3681 9.1521C17.9841 9.1521 17.6001 9.2161 17.4081 9.6001C17.2161 10.2401 17.6641 10.3681 18.1121 10.4321C19.6481 10.6881 20.4801 11.5841 20.6721 13.1201C20.6721 13.3121 20.7361 13.5041 20.8641 13.6321C20.9921 13.7601 21.1841 13.8881 21.3761 13.8241C21.5041 13.8241 21.6321 13.7601 21.6961 13.6961C21.9521 13.5041 22.0161 13.1201 22.0161 12.8001C22.0161 11.1361 20.0321 9.1521 18.3681 9.1521Z" fill="white"/>
<path id="XMLID_107_" d="M26.304 21.1841C25.536 20.6081 24.704 20.0322 23.872 19.4561C22.272 18.3681 20.8 18.2401 19.584 20.0321C18.88 21.0561 17.984 21.0562 16.96 20.6082C14.208 19.3921 12.096 17.5361 10.88 14.7842C10.688 14.3362 10.56 13.9522 10.56 13.5682C10.496 12.8642 10.816 12.2242 11.648 11.6482C12.352 11.2002 12.992 10.6882 12.928 9.66415C12.864 8.38415 9.66402 4.09615 8.44802 3.64815C7.93602 3.45615 7.42402 3.45615 6.91202 3.64815C3.90402 4.67215 2.68802 7.04015 3.84002 9.85615C4.48002 11.3922 5.24802 12.8641 6.08002 14.2721C9.72802 20.3521 15.04 24.7682 21.952 27.6482C22.464 27.8402 22.976 27.9042 23.232 28.0322C25.152 28.0322 27.392 26.2402 28.032 24.4482C28.672 22.7202 27.328 22.0161 26.304 21.1841Z" fill="white"/>
</g>
</g>
</svg>
