<svg width="86" height="90" viewBox="0 0 86 90" fill="none" xmlns="http://www.w3.org/2000/svg">
<g id="&#209;&#129;&#209;&#130;&#209;&#128;&#208;&#181;&#208;&#187;&#208;&#186;&#208;&#176;">
<g id="Group 9">
<g id="Group 8">
<path id="Union" fill-rule="evenodd" clip-rule="evenodd" d="M36.6933 81.4645C34.7407 83.4171 34.7407 86.5829 36.6933 88.5355C38.646 90.4882 41.8118 90.4882 43.7644 88.5355L83.3306 48.9694C83.607 48.6929 83.8443 48.3921 84.0425 48.0739C85.9108 46.1154 85.8828 43.0131 83.9585 41.0888L44.3924 1.52269C42.4398 -0.429932 39.274 -0.429932 37.3213 1.52269C35.3687 3.47531 35.3687 6.64114 37.3213 8.59376L73.4427 44.7151L36.6933 81.4645Z" fill="#258E03" fill-opacity="0.5"/>
</g>
</g>
<g id="Group 10">
<g id="Group 8_2">
<path id="Union_2" fill-rule="evenodd" clip-rule="evenodd" d="M1.58422 81.4645C-0.368404 83.4171 -0.368404 86.5829 1.58422 88.5355C3.53684 90.4882 6.70266 90.4882 8.65528 88.5355L48.2214 48.9694C48.4979 48.6929 48.7352 48.3921 48.9334 48.0739C50.8016 46.1154 50.7736 43.0131 48.8494 41.0888L9.28327 1.52269C7.33065 -0.429932 4.16482 -0.429932 2.2122 1.52269C0.25958 3.47531 0.259579 6.64114 2.2122 8.59376L38.3336 44.7151L1.58422 81.4645Z" fill="#258E03" fill-opacity="0.5"/>
</g>
</g>
</g>
</svg>
