<svg width="197" height="12" viewBox="0 0 197 12" fill="none" xmlns="http://www.w3.org/2000/svg">
<path fill-rule="evenodd" clip-rule="evenodd" d="M166.167 0.167248C166.984 2.37854 168.66 3.84849 169.462 5.21206C171.083 7.96743 168.592 11.0541 165.981 11.0541C163.371 11.0541 160.863 7.95162 162.546 5.16917C163.363 3.81773 164.988 2.35511 165.796 0.166965C165.832 0.0698898 165.883 -0.0085607 165.981 0.000751768C166.08 -0.0085607 166.131 0.0698898 166.167 0.166965V0.167248Z" fill="#258E03"/>
<path fill-rule="evenodd" clip-rule="evenodd" d="M8.16695 0.167248C8.98381 2.37854 10.6602 3.84849 11.4622 5.21206C13.0827 7.96743 10.5921 11.0541 7.98146 11.0541C5.37081 11.0541 2.86346 7.95162 4.54584 5.16917C5.36297 3.81773 6.98777 2.35511 7.79597 0.166965C7.83194 0.0698898 7.88331 -0.0085607 7.98146 0.000751768C8.07962 -0.0085607 8.13099 0.0698898 8.16695 0.166965V0.167248Z" fill="#258E03"/>
<path fill-rule="evenodd" clip-rule="evenodd" d="M61.0037 0.167248C61.8206 2.37854 63.497 3.84849 64.299 5.21206C65.9195 7.96743 63.4289 11.0541 60.8183 11.0541C58.2076 11.0541 55.7002 7.95162 57.3826 5.16917C58.1998 3.81773 59.8246 2.35511 60.6328 0.166965C60.6687 0.0698898 60.7201 -0.0085607 60.8183 0.000751768C60.9164 -0.0085607 60.9678 0.0698898 61.0037 0.166965V0.167248Z" fill="#258E03"/>
<path fill-rule="evenodd" clip-rule="evenodd" d="M192.585 0.167248C193.402 2.37854 195.079 3.84849 195.881 5.21206C197.501 7.96743 195.011 11.0541 192.4 11.0541C189.789 11.0541 187.282 7.95162 188.964 5.16917C189.781 3.81773 191.406 2.35511 192.214 0.166965C192.25 0.0698898 192.302 -0.0085607 192.4 0.000751768C192.498 -0.0085607 192.549 0.0698898 192.585 0.166965V0.167248Z" fill="#258E03"/>
<path fill-rule="evenodd" clip-rule="evenodd" d="M87.4221 0.167248C88.2389 2.37854 89.9154 3.84849 90.7174 5.21206C92.3378 7.96743 89.8472 11.0541 87.2366 11.0541C84.6259 11.0541 82.1186 7.95162 83.801 5.16917C84.6181 3.81773 86.2429 2.35511 87.0511 0.166965C87.0871 0.0698898 87.1384 -0.0085607 87.2366 0.000751768C87.3347 -0.0085607 87.3861 0.0698898 87.4221 0.166965V0.167248Z" fill="#258E03"/>
<path fill-rule="evenodd" clip-rule="evenodd" d="M113.841 0.167248C114.657 2.37854 116.334 3.84849 117.136 5.21206C118.756 7.96743 116.266 11.0541 113.655 11.0541C111.044 11.0541 108.537 7.95162 110.219 5.16917C111.037 3.81773 112.661 2.35511 113.47 0.166965C113.506 0.0698898 113.557 -0.0085607 113.655 0.000751768C113.753 -0.0085607 113.805 0.0698898 113.841 0.166965V0.167248Z" fill="#258E03"/>
<path fill-rule="evenodd" clip-rule="evenodd" d="M140.259 0.167248C141.076 2.37854 142.752 3.84849 143.554 5.21206C145.175 7.96743 142.684 11.0541 140.074 11.0541C137.463 11.0541 134.955 7.95162 136.638 5.16917C137.455 3.81773 139.08 2.35511 139.888 0.166965C139.924 0.0698898 139.975 -0.0085607 140.074 0.000751768C140.172 -0.0085607 140.223 0.0698898 140.259 0.166965V0.167248Z" fill="#258E03"/>
<path fill-rule="evenodd" clip-rule="evenodd" d="M34.5854 0.167248C35.4023 2.37854 37.0787 3.84849 37.8807 5.21206C39.5012 7.96743 37.0106 11.0541 34.3999 11.0541C31.7893 11.0541 29.2819 7.95162 30.9643 5.16917C31.7814 3.81773 33.4062 2.35511 34.2144 0.166965C34.2504 0.0698898 34.3018 -0.0085607 34.3999 0.000751768C34.4981 -0.0085607 34.5494 0.0698898 34.5854 0.166965V0.167248Z" fill="#258E03"/>
</svg>
